<svg width="146" height="20" viewBox="0 0 146 20" fill="none" xmlns="http://www.w3.org/2000/svg">
<path d="M0.65 19V0.374998H13.4V3.75H4.525V8.475H12.15V11.85H4.525V19H0.65ZM21.5787 19.3C20.2287 19.3 18.9954 18.9917 17.8787 18.375C16.7787 17.7583 15.8954 16.9167 15.2287 15.85C14.5787 14.7667 14.2537 13.5417 14.2537 12.175C14.2537 10.7917 14.5787 9.56667 15.2287 8.5C15.8954 7.43333 16.7787 6.59167 17.8787 5.975C18.9954 5.35833 20.2287 5.05 21.5787 5.05C22.9287 5.05 24.1537 5.35833 25.2537 5.975C26.3537 6.59167 27.2287 7.43333 27.8787 8.5C28.5454 9.56667 28.8787 10.7917 28.8787 12.175C28.8787 13.5417 28.5454 14.7667 27.8787 15.85C27.2287 16.9167 26.3537 17.7583 25.2537 18.375C24.1537 18.9917 22.9287 19.3 21.5787 19.3ZM21.5787 15.925C22.262 15.925 22.8537 15.7667 23.3537 15.45C23.8704 15.1333 24.2704 14.6917 24.5537 14.125C24.8537 13.5583 25.0037 12.9083 25.0037 12.175C25.0037 11.4417 24.8537 10.8 24.5537 10.25C24.2704 9.68333 23.8704 9.24167 23.3537 8.925C22.8537 8.59167 22.262 8.425 21.5787 8.425C20.8954 8.425 20.2954 8.59167 19.7787 8.925C19.262 9.24167 18.8537 9.68333 18.5537 10.25C18.2704 10.8 18.1287 11.4417 18.1287 12.175C18.1287 12.9083 18.2704 13.5583 18.5537 14.125C18.8537 14.6917 19.262 15.1333 19.7787 15.45C20.2954 15.7667 20.8954 15.925 21.5787 15.925ZM37.7879 19.3C36.4212 19.3 35.1879 18.9917 34.0879 18.375C33.0046 17.7417 32.1379 16.8833 31.4879 15.8C30.8546 14.7167 30.5379 13.5 30.5379 12.15C30.5379 10.8 30.8546 9.59167 31.4879 8.525C32.1212 7.44167 32.9879 6.59167 34.0879 5.975C35.1879 5.35833 36.4212 5.05 37.7879 5.05C38.8046 5.05 39.7462 5.225 40.6129 5.575C41.4796 5.925 42.2212 6.41667 42.8379 7.05C43.4546 7.66667 43.8962 8.4 44.1629 9.25L40.9129 10.65C40.6796 9.96667 40.2796 9.425 39.7129 9.025C39.1629 8.625 38.5212 8.425 37.7879 8.425C37.1379 8.425 36.5546 8.58333 36.0379 8.9C35.5379 9.21667 35.1379 9.65833 34.8379 10.225C34.5546 10.7917 34.4129 11.4417 34.4129 12.175C34.4129 12.9083 34.5546 13.5583 34.8379 14.125C35.1379 14.6917 35.5379 15.1333 36.0379 15.45C36.5546 15.7667 37.1379 15.925 37.7879 15.925C38.5379 15.925 39.1879 15.725 39.7379 15.325C40.2879 14.925 40.6796 14.3833 40.9129 13.7L44.1629 15.125C43.9129 15.925 43.4796 16.6417 42.8629 17.275C42.2462 17.9083 41.5046 18.4083 40.6379 18.775C39.7712 19.125 38.8212 19.3 37.7879 19.3ZM51.2711 19.3C50.1711 19.3 49.2294 19.0667 48.4461 18.6C47.6794 18.1167 47.0961 17.45 46.6961 16.6C46.2961 15.75 46.0961 14.7583 46.0961 13.625V5.35H49.8461V13.325C49.8461 13.8417 49.9461 14.3 50.1461 14.7C50.3628 15.0833 50.6628 15.3833 51.0461 15.6C51.4294 15.8167 51.8628 15.925 52.3461 15.925C52.8461 15.925 53.2794 15.8167 53.6461 15.6C54.0294 15.3833 54.3211 15.0833 54.5211 14.7C54.7378 14.3 54.8461 13.8417 54.8461 13.325V5.35H58.5961V19H55.0961V16.3L55.2961 16.9C54.9794 17.7167 54.4628 18.325 53.7461 18.725C53.0461 19.1083 52.2211 19.3 51.2711 19.3ZM66.6869 19.3C65.1869 19.3 63.8786 18.95 62.7619 18.25C61.6619 17.5333 60.9119 16.575 60.5119 15.375L63.2619 14.075C63.6119 14.8083 64.0869 15.3833 64.6869 15.8C65.2869 16.2167 65.9536 16.425 66.6869 16.425C67.2202 16.425 67.6286 16.3167 67.9119 16.1C68.1952 15.8833 68.3369 15.5833 68.3369 15.2C68.3369 15 68.2869 14.8333 68.1869 14.7C68.0869 14.55 67.9369 14.4167 67.7369 14.3C67.5369 14.1833 67.2869 14.0833 66.9869 14L64.6619 13.35C63.5452 13.0333 62.6869 12.525 62.0869 11.825C61.4869 11.1083 61.1869 10.2667 61.1869 9.3C61.1869 8.45 61.4036 7.70833 61.8369 7.075C62.2702 6.44167 62.8786 5.95 63.6619 5.6C64.4452 5.23333 65.3452 5.05 66.3619 5.05C67.6952 5.05 68.8619 5.36667 69.8619 6C70.8786 6.61667 71.5952 7.49167 72.0119 8.625L69.2369 9.925C69.0369 9.35833 68.6702 8.90833 68.1369 8.575C67.6202 8.225 67.0286 8.05 66.3619 8.05C65.8786 8.05 65.4952 8.15 65.2119 8.35C64.9452 8.55 64.8119 8.825 64.8119 9.175C64.8119 9.35833 64.8619 9.525 64.9619 9.675C65.0619 9.825 65.2202 9.95833 65.4369 10.075C65.6702 10.1917 65.9536 10.3 66.2869 10.4L68.4619 11.05C69.5952 11.3833 70.4619 11.8917 71.0619 12.575C71.6619 13.2417 71.9619 14.0667 71.9619 15.05C71.9619 15.9 71.7369 16.6417 71.2869 17.275C70.8536 17.9083 70.2452 18.4083 69.4619 18.775C68.6786 19.125 67.7536 19.3 66.6869 19.3ZM82.3203 19V3.75H77.5953V0.374998H90.8453V3.75H86.1953V19H82.3203ZM92.4893 19V5.35H96.2393V19H92.4893ZM92.4893 4.125V0.374998H96.2393V4.125H92.4893ZM98.9834 19V5.35H102.483V8.675L102.108 8.125C102.308 7.075 102.792 6.3 103.558 5.8C104.325 5.3 105.242 5.05 106.308 5.05C107.442 5.05 108.433 5.34167 109.283 5.925C110.15 6.49167 110.692 7.25833 110.908 8.225L109.833 8.325C110.283 7.20833 110.925 6.38333 111.758 5.85C112.592 5.31667 113.567 5.05 114.683 5.05C115.667 5.05 116.533 5.26667 117.283 5.7C118.05 6.13333 118.65 6.74167 119.083 7.525C119.517 8.29167 119.733 9.19167 119.733 10.225V19H115.983V11.025C115.983 10.4917 115.883 10.0333 115.683 9.65C115.5 9.26667 115.233 8.96667 114.883 8.75C114.533 8.53333 114.108 8.425 113.608 8.425C113.125 8.425 112.7 8.53333 112.333 8.75C111.983 8.96667 111.708 9.26667 111.508 9.65C111.325 10.0333 111.233 10.4917 111.233 11.025V19H107.483V11.025C107.483 10.4917 107.383 10.0333 107.183 9.65C107 9.26667 106.733 8.96667 106.383 8.75C106.033 8.53333 105.608 8.425 105.108 8.425C104.625 8.425 104.2 8.53333 103.833 8.75C103.483 8.96667 103.208 9.26667 103.008 9.65C102.825 10.0333 102.733 10.4917 102.733 11.025V19H98.9834ZM128.776 19.3C127.326 19.3 126.068 18.9833 125.001 18.35C123.935 17.7 123.11 16.8333 122.526 15.75C121.943 14.6667 121.651 13.4667 121.651 12.15C121.651 10.7833 121.951 9.56667 122.551 8.5C123.168 7.43333 123.993 6.59167 125.026 5.975C126.06 5.35833 127.226 5.05 128.526 5.05C129.61 5.05 130.568 5.225 131.401 5.575C132.235 5.90833 132.935 6.38333 133.501 7C134.085 7.61667 134.526 8.33333 134.826 9.15C135.126 9.95 135.276 10.825 135.276 11.775C135.276 12.0417 135.26 12.3083 135.226 12.575C135.21 12.825 135.168 13.0417 135.101 13.225H124.876V10.475H132.976L131.201 11.775C131.368 11.0583 131.36 10.425 131.176 9.875C130.993 9.30833 130.668 8.86667 130.201 8.55C129.751 8.21667 129.193 8.05 128.526 8.05C127.876 8.05 127.318 8.20833 126.851 8.525C126.385 8.84167 126.035 9.30833 125.801 9.925C125.568 10.5417 125.476 11.2917 125.526 12.175C125.46 12.9417 125.551 13.6167 125.801 14.2C126.051 14.7833 126.435 15.2417 126.951 15.575C127.468 15.8917 128.093 16.05 128.826 16.05C129.493 16.05 130.06 15.9167 130.526 15.65C131.01 15.3833 131.385 15.0167 131.651 14.55L134.651 15.975C134.385 16.6417 133.96 17.225 133.376 17.725C132.81 18.225 132.135 18.6167 131.351 18.9C130.568 19.1667 129.71 19.3 128.776 19.3ZM137.484 19V5.35H140.984V8.625L140.734 8.15C141.034 7 141.526 6.225 142.209 5.825C142.909 5.40833 143.734 5.2 144.684 5.2H145.484V8.45H144.309C143.393 8.45 142.651 8.73333 142.084 9.3C141.518 9.85 141.234 10.6333 141.234 11.65V19H137.484Z" fill="white"/>
</svg>
